PathFileType	4	(X/Y/Z)	Patient4_TMGait_0pt7_01_right_41.trc.trc
DataRate	CameraRate	NumFrames	NumMarkers	Units	OrigDataRate	OrigDataStartFrame	OrigNumFrames
85.365853658537	85.365853658537	4	33	mm	85.365853658537	1	       141
Frame#	Time	Sacral			L.Shoulder			Chest			R.Shoulder			Neck			R.ASIS			L.ASIS			R.Thigh.Superior			R.Thigh.Lateral			R.Thigh.Inferior			R.Patella			L.Thigh.Superior			L.Thigh.Lateral			L.Thigh.Inferior			L.Patella			L.Shank.Superior			L.Shank.Lateral			L.Shank.Inferior			R.Shank.Superior			R.Shank.Lateral			R.Shank.Inferior			R.Heel			R.Midfoot.Superior			R.Midfoot.Lateral			R.Toe			L.Heel			L.Midfoot.Lateral			L.Midfoot.Superior			L.Toe			L.Elbow			L.Wrist			R.Elbow			R.Wrist			
		X1	Y1	Z1	X2	Y2	Z2	X3	Y3	Z3	X4	Y4	Z4	X5	Y5	Z5	X6	Y6	Z6	X7	Y7	Z7	X8	Y8	Z8	X9	Y9	Z9	X10	Y10	Z10	X11	Y11	Z11	X12	Y12	Z12	X13	Y13	Z13	X14	Y14	Z14	X15	Y15	Z15	X16	Y16	Z16	X17	Y17	Z17	X18	Y18	Z18	X19	Y19	Z19	X20	Y20	Z20	X21	Y21	Z21	X22	Y22	Z22	X23	Y23	Z23	X24	Y24	Z24	X25	Y25	Z25	X26	Y26	Z26	X27	Y27	Z27	X28	Y28	Z28	X29	Y29	Z29	X30	Y30	Z30	X31	Y31	Z31	X32	Y32	Z32	X33	Y33	Z33	

1	46.890000000000	839.704738708566	1016.306239447166	406.398359702058	1045.813687158236	1430.667752713432	218.159086253986	1141.855720020351	1357.412571391691	383.086787256656	1060.170259705015	1442.269227151084	553.226834433609	1050.901936990892	1495.989781509403	371.481587598265	1060.826614032960	949.281127769967	529.720767193027	1057.110459414824	961.071647945947	255.639853433210	1147.442330997914	784.160851758440	500.029147312543	1111.968708517395	662.400647105891	573.996749368672	1203.253153484269	625.892573413573	495.182425556463	1224.832129625598	511.939776923577	517.397311793687	1105.274347919908	753.255040826390	285.874725217571	1016.503583092743	638.862743868516	227.295364772039	1098.845173414913	560.836170128207	293.143469628523	1098.352718885379	491.754853527597	303.767694723605	1072.919914256839	420.076243054441	294.872628313704	985.733087143491	304.243114130097	243.902512022161	1036.427639305650	194.533375540352	317.036933304045	1148.800585927701	436.327881789185	524.294926086139	1026.394615355360	397.047567762948	582.802639854975	1012.828047986502	287.662821660994	534.989655911995	813.053345815217	229.754135805065	503.475362797077	978.784884197558	163.471509941660	548.237368042862	868.336620206073	168.442891550283	578.795099424480	1037.309068899705	48.325316340165	576.041872198983	909.473588068337	38.135577290890	359.719756794479	983.497816420394	35.367374257602	278.839738043956	1065.980028376425	96.742884129563	305.930764664175	1195.139131868027	45.276076393295	277.526291409828	992.359823355558	1085.442659111398	95.382135384113	1136.850443562830	865.947457613957	100.106433935370	1030.165647171497	1094.519306392863	673.040414573518	1214.623224663651	911.747377918563	643.292428489351	
2	46.901714285714	838.335713882293	1016.311960396478	404.691207096094	1046.503529438948	1431.167062370064	218.227553627758	1140.982264249765	1357.519053565735	383.855209465556	1057.882807961744	1441.947717361839	553.529262343709	1050.220528306831	1496.106234825891	371.789999575697	1058.769432521920	950.117333436003	529.586744513082	1056.698620392184	961.245059577127	255.335350200696	1147.451124329745	787.542194584888	499.903926928877	1114.229227913738	665.642470565683	574.364697026053	1205.637861115124	630.345174786566	495.252982054274	1230.040828348502	517.967731922465	517.997231017666	1102.647321446129	752.241657994400	286.207736696481	1013.042072304117	638.643298800772	226.961237690124	1094.013702623540	559.851550982308	293.340646799339	1092.617471980533	490.822579597599	304.080927133327	1066.901694969988	419.369957723942	295.020521285906	979.151225475004	304.111513981906	243.788043498405	1028.524751864950	194.072791563914	317.225084312395	1157.456115855296	439.966106220798	525.197912646096	1037.964250639868	394.535931428193	584.045607717251	1030.011618264272	284.862153472089	536.275638424292	834.183867716631	216.550036326249	505.440599996350	1002.842506563498	159.926004381625	550.191174546464	892.626738636835	158.573398842189	580.460174403375	1067.132647789365	48.159579689207	577.629175327455	900.758733820377	38.146772591852	359.689494818022	974.828417889038	35.361484902289	278.826466314663	1057.362401223658	96.664431761068	306.014805564528	1186.527530131577	45.085779714705	277.541493904885	999.254513754815	1086.317256420076	92.871523102750	1155.156982001432	876.581450114317	99.119597633165	1023.254137551084	1094.237108192923	672.994491426160	1188.384541467290	896.957420558907	652.005640509474	
3	46.913428571429	836.991695243075	1016.325272829559	403.017486068945	1047.194964530856	1431.659783607596	218.320555252343	1140.133004679167	1357.614248671847	384.632991246744	1055.642327089693	1441.621372850829	553.840597572784	1049.553625076913	1496.224237758988	372.108662209211	1056.732962761250	950.912249356008	529.466048439694	1056.283524952215	961.396489558294	255.059751733453	1147.403990822147	790.805930273955	499.821702809398	1116.313889374090	668.763815517535	574.755876532077	1207.849778650170	634.630648606216	495.390444588660	1234.997677091546	523.854550663796	518.659671360414	1100.052981281075	751.234179075998	286.574852219185	1009.619388874309	638.423048583631	226.644066611580	1089.215879273628	558.866968258437	293.550803867576	1086.920544990700	489.900939996528	304.403654828309	1060.933807867852	418.669866947035	295.176700356612	972.638820346067	303.974726343738	243.677133723992	1020.717070271951	193.619653828251	317.412160301288	1165.896034438929	443.514638831197	526.128518469798	1049.411117037869	391.945971281619	585.327299230504	1047.098210670716	282.051670958381	537.581512284424	855.354762347195	203.352315865213	507.404193133699	1026.827564108397	156.401879325259	552.110407558002	916.931782612839	148.751520405508	582.136540573603	1096.875381738429	48.127579679370	579.200075574258	892.151232227918	38.155272844499	359.656967065401	966.261380708122	35.354931826050	278.813699050113	1048.847055736284	96.586351359165	306.099705650211	1178.017081321176	44.895136679004	277.557809167361	1006.074245616246	1087.216600310381	90.416882447917	1173.144892836899	887.233836268275	98.216270425261	1016.440876618119	1093.947913566088	672.908712318558	1162.370196562876	882.829538450245	660.537885658004	
4	46.925142857143	835.702664462328	1016.342153183151	401.413464859099	1047.891007281673	1432.130116285929	218.472471877438	1139.331665002257	1357.678621552690	385.439455945866	1053.495270838526	1441.281273625123	554.178071005152	1048.917435946955	1496.333822432403	372.459106989763	1054.746117870600	951.615811070247	529.385356297137	1055.881388094136	961.509517680301	254.848171888101	1147.222703039117	793.796280137426	499.840404445461	1118.014301877260	671.607162720872	575.206961785091	1209.692309023240	638.548675012655	495.674650432623	1239.425193366989	529.443098305573	519.444301961088	1097.495737920197	750.227094222599	287.005372710054	1006.223830244770	638.205721896178	226.356486721467	1084.422182400344	557.878001652847	293.775765663078	1081.231430207623	488.998526111111	304.729660527886	1054.992226892507	417.985274491505	295.337899936554	966.181782243267	303.834059073888	243.565289985809	1013.017426219694	193.184181729902	317.588842559367	1173.914617860436	446.877865113023	527.123230848755	1060.666172682636	389.180702382317	586.687111494866	1064.085285463696	279.241778321742	538.935855168694	876.807441317126	190.149518590373	509.365289745345	1050.814365571545	152.988064676275	553.984091110993	941.453962428824	139.047022355210	583.837435392665	1126.601756550353	48.490320103197	580.760706334772	883.674516626372	38.162819595831	359.618654347653	957.815763377067	35.347421521711	278.801203456322	1040.453704944465	96.508922994455	306.182107285920	1169.625686995894	44.701705817952	277.576095058712	1012.797064108209	1088.165302797979	88.074052532707	1190.583374878254	898.030189911639	97.502141673112	1009.724195127219	1093.690790148487	672.785612134504	1136.714967369652	869.998188971961	668.709671314338	
